:FULLY-SPECIFIED
:FORCE-ALL-JOINTS-BE-3DOF
:DEGREES
816
root -4.50688 14.673 -40.19 82.2432 -82.6648 -74.5544
lfemur -67.8012 19.2135 -15.7602
ltibia 80.9213 0 0
lfoot -5.54023 5.58822 -0.134583
ltoes -14.5707 0 0
rfemur -24.1801 -7.81943 17.716
rtibia 69.4868 0 0
rfoot -30.3703 -24.4971 0.123305
rtoes -24.0206 0 0
lowerback 16.7603 1.09374 3.69839
upperback -0.0625665 2.28096 2.20083
thorax -9.48154 0.950585 -0.253569
lowerneck -2.6437 11.0396 4.02565
upperneck -0.339994 14.712 -6.41567
head 1.2511 7.30183 -2.36747
lclavicle -2.71022e-15 -3.65471e-15 -1.11417e-30
lhumerus 81.1333 -24.8304 52.0491
lradius 70.4003 0 0
lwrist -8.52734 0 0
lhand -16.0158 26.088 -0.30929
lfingers 7.12502 0 0
lthumb 10.1774 55.6163 -0.324434
rclavicle -2.71022e-15 -3.65471e-15 -1.11417e-30
rhumerus -5.12733 35.7586 -69.8592
rradius 75.7326 0 0
rwrist -21.6805 0 0
rhand -5.67169 -38.7446 0.166593
rfingers 7.12502 0 0
rthumb 20.1121 -67.3437 0.285464
817
root -4.33782 14.6943 -40.2403 63.6832 -81.8747 -55.672
lfemur -68.2482 19.4835 -17.1605
ltibia 82.0897 0 0
lfoot -5.98146 6.29456 -0.122321
ltoes -14.7033 0 0
rfemur -25.8618 -8.24675 18.7174
rtibia 69.8578 0 0
rfoot -30.8541 -25.0269 0.111326
rtoes -23.6778 0 0
lowerback 17.0342 0.970569 3.89361
upperback -0.000364996 2.15606 2.02855
thorax -9.55337 0.875744 -0.527231
lowerneck -2.5684 11.3864 4.23086
upperneck -0.547203 15.1715 -6.91301
head 1.25184 7.5322 -2.54425
lclavicle -1.40705e-15 -1.67214e-15 -9.98374e-31
lhumerus 84.7602 -27.5236 46.4989
lradius 76.1103 0 0
lwrist -3.78872 0 0
lhand -14.8012 25.6107 -0.282155
lfingers 7.12502 0 0
lthumb 11.3494 55.0953 -0.295894
rclavicle -1.40705e-15 -1.67214e-15 -9.98374e-31
rhumerus 0.637923 36.9541 -67.8847
rradius 73.8427 0 0
rwrist -19.4143 0 0
rhand -7.09034 -38.9904 0.152493
rfingers 7.12502 0 0
rthumb 18.7521 -67.7697 0.259407
818
root -4.16876 14.7155 -40.2906 48.7526 -80.2828 -40.3966
lfemur -68.7311 19.7514 -18.6688
ltibia 83.3346 0 0
lfoot -6.44523 7.06028 -0.10398
ltoes -14.856 0 0
rfemur -27.6977 -8.66226 19.8015
rtibia 70.2873 0 0
rfoot -31.3745 -25.5856 0.094012
rtoes -23.3055 0 0
lowerback 17.3306 0.838746 4.09402
upperback 0.0681386 2.02248 1.84121
thorax -9.63065 0.795561 -0.818732
lowerneck -2.48552 11.7616 4.45276
upperneck -0.777725 15.6667 -7.45285
head 1.25111 7.78152 -2.73496
lclavicle -6.18993e-17 4.63863e-16 -8.36809e-31
lhumerus 89.0735 -30.0358 40.1683
lradius 82.2431 0 0
lwrist 1.32501 0 0
lhand -13.492 25.094 -0.240691
lfingers 7.12502 0 0
lthumb 12.6127 54.5318 -0.252349
rclavicle -6.18993e-17 4.63863e-16 -8.36809e-31
rhumerus 7.00424 38.0314 -65.5531
rradius 71.7921 0 0
rwrist -16.9611 0 0
rhand -8.60292 -39.2583 0.130513
rfingers 7.12502 0 0
rthumb 17.3022 -68.229 0.220446
819
root -3.99969 14.7367 -40.3409 37.9507 -78.066 -29.226
lfemur -69.2516 20.0145 -20.2895
ltibia 84.6584 0 0
lfoot -6.93198 7.88774 -0.0783762
ltoes -15.0298 0 0
rfemur -29.6949 -9.05821 20.9724
rtibia 70.7781 0 0
rfoot -31.9328 -26.1739 0.0704077
rtoes -22.9022 0 0
lowerback 17.6506 0.69778 4.29955
upperback 0.143302 1.87996 1.63814
thorax -9.71352 0.709786 -1.12865
lowerneck -2.39443 12.1661 4.69218
upperneck -1.03363 16.1986 -8.03763
head 1.24866 8.05051 -2.94015
lclavicle 1.32511e-15 2.75925e-15 -6.22041e-31
lhumerus 94.1479 -32.2281 32.9753
lradius 88.8144 0 0
lwrist 6.82867 0 0
lhand -12.0848 24.5368 -0.182037
lfingers 7.12502 0 0
lthumb 13.9704 53.9246 -0.190809
rclavicle 1.32511e-15 2.75925e-15 -6.22041e-31
rhumerus 14.0003 38.9269 -62.8476
rradius 69.5742 0 0
rwrist -14.3135 0 0
rhand -10.2125 -39.5491 0.0990204
rfingers 7.12502 0 0
rthumb 15.7594 -68.7225 0.166105
820
root -3.83063 14.758 -40.3912 30.3358 -75.3773 -21.217
lfemur -69.8115 20.2701 -22.027
ltibia 86.0638 0 0
lfoot -7.44207 8.77932 -0.0441977
ltoes -15.2258 0 0
rfemur -31.8603 -9.42563 22.2338
rtibia 71.3336 0 0
rfoot -32.5303 -26.7924 0.0394573
rtoes -22.4667 0 0
lowerback 17.995 0.547294 4.50992
upperback 0.225493 1.72823 1.41868
thorax -9.80212 0.618165 -1.45754
lowerneck -2.29446 12.601 4.94999
upperneck -1.31718 16.7682 -8.66995
head 1.24423 8.34002 -3.16048
lclavicle 2.75385e-15 5.21997e-15 -3.46007e-31
lhumerus 100.017 -33.9282 24.875
lradius 95.8401 0 0
lwrist 12.7371 0 0
lhand -10.5762 23.9382 -0.102993
lfingers 7.12502 0 0
lthumb 15.4259 53.2726 -0.107931
rclavicle 2.75385e-15 5.21997e-15 -3.46007e-31
rhumerus 21.6366 39.5659 -59.7729
rradius 67.1824 0 0
rwrist -11.4639 0 0
rhand -11.9223 -39.8634 0.0561909
rfingers 7.12502 0 0
rthumb 14.1211 -69.2509 0.0936333
